PathFileType	4	(X/Y/Z)	 s09c0101.trc
DataRate	CameraRate	NumFrames	NumMarkers	Units	OrigDataRate	OrigDataStartFrame	OrigNumFrames
200	200	4	50	mm	200	1751	2000
Frame#	Time	racr			lacr			c7			jug			rlel			rdr			llel			ldr			s2			lic			ric			lasi			rasi			rpsi			lpsi			rgt			lgt			rth1			rth2			rth3			rth4			rlfc			rmfc			rsh1			rsh2			rsh3			rsh4			rlmal			rmmal			rcal			rtoe			rmt5			lth1			lth2			lth4			lth3			llfc			lmfc			llmal			lmmal			lcal			lmt5			lsh1			lsh2			lsh3			lsh4			ltoe			SBIKE			LBIKE			RBIKE			
		X1	Y1	Z1	X2	Y2	Z2	X3	Y3	Z3	X4	Y4	Z4	X5	Y5	Z5	X6	Y6	Z6	X7	Y7	Z7	X8	Y8	Z8	X9	Y9	Z9	X10	Y10	Z10	X11	Y11	Z11	X12	Y12	Z12	X13	Y13	Z13	X14	Y14	Z14	X15	Y15	Z15	X16	Y16	Z16	X17	Y17	Z17	X18	Y18	Z18	X19	Y19	Z19	X20	Y20	Z20	X21	Y21	Z21	X22	Y22	Z22	X23	Y23	Z23	X24	Y24	Z24	X25	Y25	Z25	X26	Y26	Z26	X27	Y27	Z27	X28	Y28	Z28	X29	Y29	Z29	X30	Y30	Z30	X31	Y31	Z31	X32	Y32	Z32	X33	Y33	Z33	X34	Y34	Z34	X35	Y35	Z35	X36	Y36	Z36	X37	Y37	Z37	X38	Y38	Z38	X39	Y39	Z39	X40	Y40	Z40	X41	Y41	Z41	X42	Y42	Z42	X43	Y43	Z43	X44	Y44	Z44	X45	Y45	Z45	X46	Y46	Z46	X47	Y47	Z47	X48	Y48	Z48	X49	Y49	Z49	X50	Y50	Z50	
1751	8.7550	542.500245	1281.380809	-149.237035	521.268036	1263.255651	-437.995887	504.411696	1299.903525	-288.834342	483.829335	1157.466136	-283.190683	504.092571	1054.476149	-18.420009	686.274560	884.303013	-58.079770	499.244056	1013.210957	-560.284446	687.898716	876.673058	-462.590352	16.401067	1122.338535	-200.948202	124.010249	1127.711948	-378.099272	180.546003	1116.361549	-80.163701	173.810532	1075.176343	-359.311857	219.851621	1066.607867	-111.004441	58.659881	1151.331370	-152.816704	31.442168	1161.682872	-256.393093	156.388245	964.928051	-45.654639	104.141017	1015.041244	-416.072944	233.507387	849.579580	-57.469449	292.098343	786.570465	-72.890507	306.356913	699.179524	-83.906524	316.458383	799.808028	-97.149743	337.010247	611.421765	-117.450758	308.025970	586.674717	-210.020154	303.591145	516.300648	-77.943071	317.090757	428.025228	-90.487534	286.242144	346.175161	-86.040205	339.682064	428.401985	-124.128167	267.907774	244.477825	-81.919319	266.056397	254.065280	-157.648772	191.109092	216.154304	-115.573106	452.420836	174.210815	-130.528891	371.417103	166.924118	-62.378671	236.337509	960.292355	-423.932771	321.704955	957.717781	-422.311456	333.795872	990.005305	-406.160272	398.586880	910.466458	-428.853244	473.678898	848.294620	-415.812785	491.396946	828.405789	-315.136513	206.560559	602.712369	-410.349021	229.183798	598.613320	-340.481016	132.114455	615.706688	-370.749264	234.291741	475.254955	-430.079300	406.727723	780.750626	-433.871619	359.338353	708.270980	-421.885083	279.802811	668.945711	-418.085137	380.367960	689.854720	-395.030095	314.086168	429.460994	-360.132646	-65.527888	853.279026	-238.801366	20.708094	84.671517	-441.941001	21.066381	83.976638	-43.855104	
1752	8.7600	543.883646	1280.572944	-149.779412	521.554108	1263.379173	-438.590866	505.321076	1299.667912	-289.202684	484.509478	1157.239961	-284.071326	505.233710	1054.655654	-17.930817	686.883304	883.966057	-58.017744	498.797712	1012.728539	-559.930858	687.943964	876.761840	-462.326655	17.383428	1122.773857	-199.796318	124.159577	1128.579829	-377.164229	182.066360	1115.928826	-79.807278	174.217226	1076.222546	-358.966433	220.979340	1066.307029	-111.054169	60.306871	1151.405315	-153.132685	30.577123	1163.039351	-254.853682	157.946079	964.437702	-44.752401	104.658388	1016.553413	-415.684182	232.701990	848.796777	-56.671333	290.384977	784.870144	-71.959276	303.102452	697.222431	-82.759620	314.656950	797.643759	-96.721971	332.191080	608.926159	-116.406570	303.050947	584.637672	-209.443527	297.841997	514.307238	-77.314697	310.978723	425.907502	-89.797138	279.665326	344.305274	-85.553672	332.985334	425.990503	-123.516398	260.796173	242.896561	-81.863974	259.177217	252.160159	-157.376225	183.997929	216.234457	-115.718825	443.698620	167.458397	-130.271135	362.412388	162.574220	-62.193866	237.259237	964.799571	-422.639806	322.736073	963.751231	-421.307607	334.290231	996.135763	-405.042643	400.337363	917.854907	-428.349301	476.616393	857.361757	-415.334261	495.197024	837.185724	-314.865409	213.879700	606.579950	-410.878406	236.863537	603.658384	-341.245856	138.874635	618.369941	-371.117235	243.920203	479.902547	-430.458058	411.488904	788.848129	-433.568719	365.165209	715.583185	-422.037719	286.265219	675.158386	-418.403843	386.606065	697.219290	-395.418788	324.412076	435.723603	-360.234787	-65.490289	853.336785	-238.745916	20.709468	84.670483	-441.947715	21.047369	84.002066	-43.879067	
1753	8.7650	545.372738	1279.706741	-150.084286	522.209878	1263.698360	-438.919928	506.435131	1299.419998	-289.324199	485.367475	1157.006764	-284.732674	506.427418	1054.775811	-17.219497	687.781030	883.177180	-57.929063	498.571447	1012.488042	-559.499898	687.990272	876.866741	-461.939338	18.149096	1123.451135	-198.616537	124.348960	1129.717623	-376.403279	183.523028	1115.604466	-79.523024	174.430761	1077.046178	-358.592102	221.970514	1065.950329	-111.314929	61.464501	1151.747571	-152.120452	31.668543	1163.931189	-254.019173	159.404585	964.231562	-43.746171	105.400936	1018.496972	-415.777897	231.955994	848.518137	-55.845462	288.677247	783.679526	-71.067748	300.023720	695.770731	-81.596224	312.933797	796.034212	-96.142846	327.767797	606.890681	-115.242817	298.295395	582.995943	-208.791955	292.473168	512.874492	-76.632736	305.069778	424.514744	-89.117544	273.089057	342.966473	-85.127735	327.142082	424.359747	-122.789821	253.528026	242.231629	-81.774008	252.035579	251.048955	-157.158124	176.474425	217.108630	-115.881745	434.744351	161.680091	-130.019291	353.185154	158.599192	-62.164961	238.122559	969.318652	-421.734943	323.620039	969.499695	-420.170992	334.662370	1001.938150	-403.660939	401.912909	924.931530	-427.691916	479.201783	865.508085	-415.469503	498.279306	845.864092	-314.260472	221.131010	609.902100	-411.211688	243.773560	607.156142	-341.734800	145.605879	620.173789	-371.473049	253.705054	483.970951	-430.640014	415.682376	796.541103	-432.963944	371.026080	722.367622	-422.532542	292.706986	680.284523	-417.962099	392.310212	704.645893	-394.741008	334.982418	441.558005	-360.414099	-65.454532	853.395456	-238.754565	20.711774	84.680878	-441.943812	21.063513	83.993020	-43.870073	
1754	8.7700	546.888553	1278.725981	-150.153877	522.966567	1264.046634	-438.819242	507.642403	1299.175656	-289.223855	486.171435	1156.798897	-285.274341	507.763873	1054.794212	-16.289795	688.169819	882.859786	-57.679454	498.412346	1012.408477	-558.886350	688.020288	876.928365	-461.442301	18.937120	1124.465723	-198.171587	124.748076	1131.168114	-375.908856	184.903292	1115.415013	-79.295263	174.489979	1077.976497	-358.241279	223.058762	1065.834407	-111.332291	62.561844	1152.331545	-151.322344	32.405401	1164.777757	-253.130179	160.686509	964.343403	-42.837613	105.981900	1020.457514	-415.845016	231.034836	848.486519	-55.248582	286.954849	782.855346	-70.143175	297.144032	694.747262	-80.502231	311.311407	794.842268	-95.438479	323.792773	605.502466	-114.297725	293.979054	582.118124	-208.459938	287.106097	511.780196	-76.501105	299.407774	423.457139	-88.495312	266.519084	342.312774	-84.769789	321.550026	423.148375	-122.085527	246.049688	242.015166	-81.659516	248.160267	249.529692	-156.672041	168.945439	218.609961	-116.058238	424.697237	155.466308	-130.863557	343.752872	155.402792	-62.031653	238.933827	973.789781	-421.135355	324.353842	975.065492	-419.035468	334.917732	1007.512423	-402.165569	403.232776	931.417861	-426.971593	483.021031	873.732448	-414.293158	501.522771	854.078714	-313.469786	228.306714	612.538302	-411.490171	250.830456	610.493134	-342.137265	152.250117	621.138843	-371.725768	263.510710	487.460933	-430.897784	419.617301	803.858003	-432.300605	376.009747	728.577470	-422.355743	298.692303	685.138533	-417.958878	397.572987	710.662416	-394.326607	345.726517	446.953707	-360.425902	-65.435799	853.425947	-238.784868	20.712925	84.713856	-441.947391	21.057993	84.007012	-43.879770	
